<?xml version="1.0" encoding="utf-8"?>
<svg xmlns="http://www.w3.org/2000/svg" viewBox="0 0 500 500">
  <defs>
    <linearGradient gradientUnits="userSpaceOnUse" x1="3812.922" y1="3332.058" x2="3812.922" y2="7320.548" id="gradient-0" gradientTransform="matrix(0.893807, 0.448453, -0.379087, 0.755554, 2507.457874, 63.920965)" spreadMethod="pad">
      <stop offset="0" style="stop-color: rgb(6, 182, 212);"/>
      <stop offset="1" style="stop-color: rgb(2, 132, 199);"/>
    </linearGradient>
  </defs>
  <g transform="matrix(0.086108, 0, 0, -0.086108, -191.242023, 678.405161)" fill="#000000" stroke="none" style="">
    <path d="M 6146 7325 C 6081 7302 6027 7239 5980 7131 C 5764 6638 5288 5582 5254 5520 C 5247 5506 4241.801 3360.18 4228.348 3331.893 C 4224.987 3324.826 4580.348 2704.893 4645.348 2659.893 C 4727.348 2602.893 4757 2608 5140 2616 C 5452 2622 5490 2624 5540 2643 C 5621 2673 5685 2739 5760 2872 C 5796 2934 5894 3104 5978 3250 C 6239 3698 6591 4340 6706 4574 C 6778 4720 6779 4784 6708 4857 C 6664 4903 6623 4913 6480 4915 C 6302 4918 6222 4949 6117 5056 C 6058 5116 5993 5244 5980 5323 C 5971 5383 5980 5492 6000 5560 C 6060 5761 6279 5920 6495 5920 C 6647 5919 6767 5865 6873 5747 C 6916 5699 6963 5658 6992 5644 C 7080 5599 7179 5619 7226 5689 C 7266 5750 7869 7055 7891 7130 C 7913 7202 7870 7287 7796 7321 C 7757 7339 7713 7340 6970 7339 C 6326 7339 6178 7337 6146 7325 Z" style="fill: rgb(12, 74, 110);"/>
    <path style="stroke: rgb(0, 0, 0); stroke-width: 11.613; opacity: 1; fill: url(&quot;#gradient-0&quot;); paint-order: fill; stroke-opacity: 0;" d="M 5265.517 5541.248 C 5132.676 5258.459 4959.656 5572.33 4896.383 5709.269 C 4259.517 7087.611 4887.525 5705.858 4257.823 7116.528 C 4177.875 7295.629 4126.693 7318.808 4077.763 7319.289 C 3806.58 7321.955 2715.443 7319.559 2529.453 7319.559 C 2314.853 7319.559 2335.313 7150.369 2383.153 7048.819 C 2461.023 6883.519 4233.257 3321.097 4228.496 3331.575"/>
  </g>
</svg>
